<mxfile host="65bd71144e">
    <diagram id="HyvoE6n1TOVzMIvCqFXr" name="Page-1">
        <mxGraphModel dx="1066" dy="804" grid="1" gridSize="10" guides="1" tooltips="1" connect="1" arrows="1" fold="1" page="1" pageScale="1" pageWidth="850" pageHeight="1100" math="0" shadow="0">
            <root>
                <mxCell id="0"/>
                <mxCell id="1" parent="0"/>
                <mxCell id="2" value="" style="whiteSpace=wrap;html=1;" vertex="1" parent="1">
                    <mxGeometry x="40" y="120" width="160" height="40" as="geometry"/>
                </mxCell>
                <mxCell id="3" style="edgeStyle=none;html=1;startArrow=none;entryX=0;entryY=0.5;entryDx=0;entryDy=0;" edge="1" parent="1" target="10">
                    <mxGeometry relative="1" as="geometry">
                        <mxPoint x="400" y="240" as="targetPoint"/>
                        <mxPoint x="350" y="240" as="sourcePoint"/>
                    </mxGeometry>
                </mxCell>
                <mxCell id="4" value="" style="whiteSpace=wrap;html=1;" vertex="1" parent="1">
                    <mxGeometry x="40" y="160" width="160" height="160" as="geometry"/>
                </mxCell>
                <mxCell id="5" value="" style="whiteSpace=wrap;html=1;" vertex="1" parent="1">
                    <mxGeometry x="560" y="80" width="160" height="160" as="geometry"/>
                </mxCell>
                <mxCell id="6" value="" style="whiteSpace=wrap;html=1;" vertex="1" parent="1">
                    <mxGeometry x="560" y="40" width="160" height="40" as="geometry"/>
                </mxCell>
                <mxCell id="7" value="admin" style="text;strokeColor=none;align=center;fillColor=none;html=1;verticalAlign=middle;whiteSpace=wrap;rounded=0;" vertex="1" parent="1">
                    <mxGeometry x="90" y="125" width="60" height="30" as="geometry"/>
                </mxCell>
                <mxCell id="8" value="demonstration" style="text;strokeColor=none;align=center;fillColor=none;html=1;verticalAlign=middle;whiteSpace=wrap;rounded=0;" vertex="1" parent="1">
                    <mxGeometry x="610" y="45" width="60" height="30" as="geometry"/>
                </mxCell>
                <mxCell id="9" value="- id&lt;br&gt;&lt;div style=&quot;text-align: left;&quot;&gt;&lt;span style=&quot;background-color: initial;&quot;&gt;- name&lt;/span&gt;&lt;/div&gt;&lt;div style=&quot;text-align: left;&quot;&gt;&lt;br&gt;&lt;/div&gt;&lt;div style=&quot;text-align: left;&quot;&gt;&lt;br&gt;&lt;/div&gt;" style="text;strokeColor=none;align=center;fillColor=none;html=1;verticalAlign=middle;whiteSpace=wrap;rounded=0;" vertex="1" parent="1">
                    <mxGeometry x="40" y="160" width="160" height="160" as="geometry"/>
                </mxCell>
                <mxCell id="10" value="- id&lt;br&gt;- img&lt;br&gt;- date&amp;nbsp;&lt;br&gt;- description" style="text;strokeColor=none;align=center;fillColor=none;html=1;verticalAlign=middle;whiteSpace=wrap;rounded=0;" vertex="1" parent="1">
                    <mxGeometry x="560" y="80" width="160" height="160" as="geometry"/>
                </mxCell>
                <mxCell id="11" value="" style="edgeStyle=none;html=1;endArrow=none;startArrow=none;exitX=0;exitY=1;exitDx=0;exitDy=0;entryX=0;entryY=1;entryDx=0;entryDy=0;" edge="1" parent="1">
                    <mxGeometry relative="1" as="geometry">
                        <mxPoint x="350.0000000000001" y="240" as="targetPoint"/>
                        <mxPoint x="200" y="239.9999999999999" as="sourcePoint"/>
                    </mxGeometry>
                </mxCell>
                <mxCell id="14" value="" style="edgeStyle=none;html=1;endArrow=none;" edge="1" parent="1" source="4">
                    <mxGeometry relative="1" as="geometry">
                        <mxPoint x="200" y="228" as="targetPoint"/>
                        <mxPoint x="200" y="240" as="sourcePoint"/>
                    </mxGeometry>
                </mxCell>
                <mxCell id="17" style="edgeStyle=none;html=1;entryX=0.5;entryY=1;entryDx=0;entryDy=0;" edge="1" parent="1" source="18" target="10">
                    <mxGeometry relative="1" as="geometry"/>
                </mxCell>
                <mxCell id="18" value="" style="whiteSpace=wrap;html=1;" vertex="1" parent="1">
                    <mxGeometry x="560" y="450" width="160" height="40" as="geometry"/>
                </mxCell>
                <mxCell id="19" value="" style="whiteSpace=wrap;html=1;" vertex="1" parent="1">
                    <mxGeometry x="560" y="490" width="160" height="160" as="geometry"/>
                </mxCell>
                <mxCell id="20" value="King" style="text;strokeColor=none;align=center;fillColor=none;html=1;verticalAlign=middle;whiteSpace=wrap;rounded=0;" vertex="1" parent="1">
                    <mxGeometry x="610" y="455" width="60" height="30" as="geometry"/>
                </mxCell>
                <mxCell id="21" value="- id&lt;br&gt;&lt;div style=&quot;text-align: left;&quot;&gt;&lt;span style=&quot;background-color: initial;&quot;&gt;- name&lt;/span&gt;&lt;/div&gt;&lt;div style=&quot;text-align: left;&quot;&gt;&lt;br&gt;&lt;/div&gt;" style="text;strokeColor=none;align=center;fillColor=none;html=1;verticalAlign=middle;whiteSpace=wrap;rounded=0;" vertex="1" parent="1">
                    <mxGeometry x="560" y="490" width="160" height="160" as="geometry"/>
                </mxCell>
                <mxCell id="22" value="" style="edgeStyle=none;html=1;endArrow=none;" edge="1" parent="1" source="19">
                    <mxGeometry relative="1" as="geometry">
                        <mxPoint x="720" y="558" as="targetPoint"/>
                        <mxPoint x="720" y="570" as="sourcePoint"/>
                    </mxGeometry>
                </mxCell>
                <mxCell id="27" value="N,M" style="text;strokeColor=none;align=center;fillColor=none;html=1;verticalAlign=middle;whiteSpace=wrap;rounded=0;" vertex="1" parent="1">
                    <mxGeometry x="600" y="420" width="60" height="30" as="geometry"/>
                </mxCell>
                <mxCell id="28" value="N,M" style="text;strokeColor=none;align=center;fillColor=none;html=1;verticalAlign=middle;whiteSpace=wrap;rounded=0;" vertex="1" parent="1">
                    <mxGeometry x="200" y="210" width="60" height="30" as="geometry"/>
                </mxCell>
                <mxCell id="29" value="MLD" style="text;strokeColor=none;align=center;fillColor=none;html=1;verticalAlign=middle;whiteSpace=wrap;rounded=0;" vertex="1" parent="1">
                    <mxGeometry x="40" y="40" width="80" height="40" as="geometry"/>
                </mxCell>
                <mxCell id="30" value="" style="whiteSpace=wrap;html=1;" vertex="1" parent="1">
                    <mxGeometry x="300" y="160" width="160" height="130" as="geometry"/>
                </mxCell>
                <mxCell id="31" value="- id&amp;nbsp;&lt;br&gt;- user_id&amp;nbsp;&lt;br&gt;- demonstration_id&amp;nbsp;" style="text;strokeColor=none;align=center;fillColor=none;html=1;verticalAlign=middle;whiteSpace=wrap;rounded=0;" vertex="1" parent="1">
                    <mxGeometry x="300" y="160" width="160" height="130" as="geometry"/>
                </mxCell>
                <mxCell id="32" value="" style="whiteSpace=wrap;html=1;" vertex="1" parent="1">
                    <mxGeometry x="300" y="100" width="160" height="60" as="geometry"/>
                </mxCell>
                <mxCell id="33" value="organizes" style="text;strokeColor=none;align=center;fillColor=none;html=1;verticalAlign=middle;whiteSpace=wrap;rounded=0;" vertex="1" parent="1">
                    <mxGeometry x="300" y="100" width="160" height="60" as="geometry"/>
                </mxCell>
                <mxCell id="34" value="" style="whiteSpace=wrap;html=1;" vertex="1" parent="1">
                    <mxGeometry x="535" y="270" width="210" height="30" as="geometry"/>
                </mxCell>
                <mxCell id="35" value="" style="whiteSpace=wrap;html=1;" vertex="1" parent="1">
                    <mxGeometry x="535" y="300" width="210" height="110" as="geometry"/>
                </mxCell>
                <mxCell id="36" value="participate" style="text;strokeColor=none;align=center;fillColor=none;html=1;verticalAlign=middle;whiteSpace=wrap;rounded=0;" vertex="1" parent="1">
                    <mxGeometry x="535" y="270" width="210" height="30" as="geometry"/>
                </mxCell>
                <mxCell id="37" value="-id &lt;br&gt;- king_id&amp;nbsp;&lt;br&gt;- demonstration_id&amp;nbsp;" style="text;strokeColor=none;align=center;fillColor=none;html=1;verticalAlign=middle;whiteSpace=wrap;rounded=0;" vertex="1" parent="1">
                    <mxGeometry x="535" y="300" width="210" height="110" as="geometry"/>
                </mxCell>
            </root>
        </mxGraphModel>
    </diagram>
</mxfile>